<?xml version="1.0" standalone="no"?>
<!DOCTYPE svg PUBLIC "-//W3C//DTD SVG 20010904//EN"
 "http://www.w3.org/TR/2001/REC-SVG-20010904/DTD/svg10.dtd">
<svg version="1.0" xmlns="http://www.w3.org/2000/svg"
 width="150.000000pt" height="150.000000pt" viewBox="0 0 150.000000 150.000000"
 preserveAspectRatio="xMidYMid meet">
<metadata>
Created by potrace 1.11, written by Peter Selinger 2001-2013
</metadata>
<g transform="translate(0.000000,150.000000) scale(0.100000,-0.100000)"
fill="#000000" stroke="none">
<path d="M0 750 l0 -750 750 0 750 0 0 750 0 750 -750 0 -750 0 0 -750z m553
594 c39 -20 97 -74 97 -90 0 -25 -28 -21 -49 7 -53 71 -140 89 -222 46 -135
-72 -124 -304 18 -363 40 -17 123 -18 158 -2 24 11 25 15 25 90 l0 78 -45 0
c-33 0 -45 4 -45 15 0 12 16 15 85 15 l85 0 0 -100 0 -100 -37 -17 c-28 -12
-67 -17 -148 -17 -105 -1 -113 0 -164 30 -77 43 -114 98 -119 177 -8 121 65
215 193 248 41 11 130 2 168 -17z m725 -1 c3 -10 -24 -13 -112 -13 l-116 0 0
-80 0 -80 80 0 c64 0 80 -3 80 -15 0 -12 -16 -15 -80 -15 l-80 0 0 -115 0
-115 -40 0 -40 0 0 225 0 226 152 -3 c110 -2 152 -6 156 -15z m-675 -703 c47
-14 109 -68 131 -114 21 -44 21 -138 0 -179 -51 -101 -130 -137 -304 -137
l-120 0 0 226 0 227 128 -6 c70 -3 144 -11 165 -17z m527 -205 l0 -225 -40 0
-40 0 0 225 0 225 40 0 40 0 0 -225z"/>
<path d="M390 429 l0 -192 71 6 c102 9 156 44 186 122 25 66 5 164 -43 207
-34 30 -92 48 -154 48 l-60 0 0 -191z"/>
</g>
</svg>
